<svg width="33" height="33" viewBox="0 0 33 33" fill="none" xmlns="http://www.w3.org/2000/svg">
<path d="M11.165 20.2263L16.5 14.8913L21.835 20.2263C21.9623 20.3536 22.1134 20.4546 22.2798 20.5235C22.4461 20.5923 22.6244 20.6278 22.8044 20.6278C22.9844 20.6278 23.1627 20.5923 23.329 20.5235C23.4953 20.4546 23.6465 20.3536 23.7738 20.2263C23.9011 20.099 24.002 19.9479 24.0709 19.7815C24.1398 19.6152 24.1753 19.4369 24.1753 19.2569C24.1753 19.0769 24.1398 18.8986 24.0709 18.7323C24.002 18.566 23.9011 18.4148 23.7738 18.2875L17.4625 11.9763C16.9263 11.44 16.06 11.44 15.5238 11.9763L9.21252 18.2875C9.08505 18.4147 8.98392 18.5658 8.91492 18.7322C8.84592 18.8985 8.8104 19.0768 8.8104 19.2569C8.8104 19.437 8.84592 19.6153 8.91492 19.7816C8.98392 19.948 9.08505 20.0991 9.21252 20.2263C9.74876 20.7488 10.6288 20.7625 11.165 20.2263Z" fill="#0D1821"/>
</svg>
