<svg width="21" height="20" viewBox="0 0 21 20" fill="none" xmlns="http://www.w3.org/2000/svg">
<path d="M16.5218 17.5L11.2718 12.25C10.8551 12.5833 10.376 12.8472 9.83431 13.0417C9.29264 13.2361 8.71625 13.3333 8.10514 13.3333C6.59125 13.3333 5.31014 12.8089 4.26181 11.76C3.21348 10.7111 2.68903 9.43 2.68848 7.91667C2.68792 6.40333 3.21237 5.12222 4.26181 4.07333C5.31125 3.02444 6.59237 2.5 8.10514 2.5C9.61792 2.5 10.8993 3.02444 11.9493 4.07333C12.9993 5.12222 13.5235 6.40333 13.5218 7.91667C13.5218 8.52778 13.4246 9.10417 13.2301 9.64583C13.0357 10.1875 12.7718 10.6667 12.4385 11.0833L17.6885 16.3333L16.5218 17.5ZM8.10514 11.6667C9.14681 11.6667 10.0324 11.3022 10.7618 10.5733C11.4913 9.84444 11.8557 8.95889 11.8551 7.91667C11.8546 6.87444 11.4901 5.98917 10.7618 5.26083C10.0335 4.5325 9.14792 4.16778 8.10514 4.16667C7.06237 4.16556 6.17709 4.53028 5.44931 5.26083C4.72153 5.99139 4.35681 6.87667 4.35514 7.91667C4.35348 8.95667 4.7182 9.84222 5.44931 10.5733C6.18042 11.3044 7.0657 11.6689 8.10514 11.6667Z" fill="#ADADAD"/>
</svg>
